# xmcd
#
# Track frame offsets:
#	150
#	62908
#	76750
#	89858
#	103648
#
# Disc length: 1569 seconds
#
# Revision: 1
# Processed by: cddbd v1.5.2PL0 Copyright (c) Steve Scherf et al.
# Submitted via: audiograbber 1.83.01
#
DISCID=3b061f05
DTITLE=Max Mutzke - Can't Wait Until Tonight
DYEAR=1900
DGENRE=
TTITLE0=Daten-CD
TTITLE1=Can't wait until tonight (Radio Version)
TTITLE2=Can't wait until tonight (Dry Wurlitzer Mix)
TTITLE3=Can't wait until tonight (Instrumental)
TTITLE4=Can't wait until tonight (Live Version)
EXTD=
EXTT0=
EXTT1=
EXTT2=
EXTT3=
EXTT4=
PLAYORDER=
